<?xml version="1.0" standalone="no"?>
<!DOCTYPE svg PUBLIC "-//W3C//DTD SVG 20010904//EN"
 "http://www.w3.org/TR/2001/REC-SVG-20010904/DTD/svg10.dtd">
<svg version="1.0" xmlns="http://www.w3.org/2000/svg"
 width="512.000000pt" height="512.000000pt" viewBox="0 0 512.000000 512.000000"
 preserveAspectRatio="xMidYMid meet">
<metadata>
Created by potrace 1.11, written by Peter Selinger 2001-2013
</metadata>
<g transform="translate(0.000000,512.000000) scale(0.100000,-0.100000)"
fill="#000000" stroke="none">
<path d="M755 4899 c-226 -38 -402 -191 -477 -414 l-23 -70 -3 -1735 c-2
-1490 0 -1746 12 -1820 40 -227 201 -406 431 -477 57 -17 139 -18 1810 -18
1671 0 1753 1 1810 18 227 70 390 249 430 472 12 67 14 355 15 1788 0 1502 -2
1717 -15 1783 -46 221 -191 382 -410 456 l-70 23 -1730 1 c-952 1 -1752 -2
-1780 -7z m2115 -873 l0 -33 -117 -6 c-139 -6 -196 -24 -247 -75 -74 -74 -71
-16 -71 -1222 0 -591 4 -1101 8 -1132 11 -74 40 -117 102 -148 50 -25 50 -25
345 -25 332 0 386 8 513 69 199 96 336 295 454 656 l36 110 44 0 44 0 -6 -42
c-6 -46 -80 -740 -92 -873 l-8 -80 -1262 -3 -1263 -2 0 33 0 34 99 6 c205 14
272 68 291 238 13 108 13 2104 0 2222 -10 100 -30 141 -87 179 -58 38 -100 49
-205 55 l-98 6 0 33 0 34 760 0 760 0 0 -34z"/>
</g>
</svg>
